# xmcd CD database file
#
# Track frame offsets:
#	150
#	17379
#	51841
#	86824
#	132026
#	149374
#
# Disc length: 2307 seconds
#
# Revision: 0
# Processed by: cddbd v1.5.2PL0 Copyright (c) Steve Scherf et al.
# Submitted via: CDex 1.77
#
DISCID=48090106
DTITLE=Hadley Caliman - Iapetus
DYEAR=1972
DGENRE=Jazz
TTITLE0=Watercress
TTITLE1=Ambivalence
TTITLE2=Dee's Glee
TTITLE3=Iapetus
TTITLE4=Quadrivium
TTITLE5=Green Eyes
EXTD=YEAR: 1972
EXTT0=
EXTT1=
EXTT2=
EXTT3=
EXTT4=
EXTT5=
PLAYORDER=
